<svg
  width="24"
  height="24"
  viewBox="0 0 24 24"
  fill="none"
  xmlns="http://www.w3.org/2000/svg"
>
  <path
    fillRule="evenodd"
    clipRule="evenodd"
    d="M11.54 22.351L11.61 22.391L11.638 22.407C11.749 22.468 11.872 22.5 12 22.5C12.128 22.5 12.251 22.468 12.362 22.407L12.39 22.391L12.46 22.351C12.5314 22.3069 12.6061 22.2576 12.684 22.203C12.7826 22.1325 12.8878 22.0517 13 21.961C13.224 21.779 13.5 21.55 13.816 21.276C14.447 20.728 15.242 19.996 16.032 19.138C17.614 17.42 19.25 15.158 19.25 12.5C19.25 8.77 16.063 5.75 12 5.75C7.937 5.75 4.75 8.77 4.75 12.5C4.75 15.158 6.386 17.42 7.968 19.138C8.758 19.996 9.553 20.728 10.184 21.276C10.5 21.55 10.776 21.779 11 21.961C11.1122 22.0517 11.2174 22.1325 11.316 22.203C11.3939 22.2576 11.4686 22.3069 11.54 22.351ZM12 13.75C13.2426 13.75 14.25 12.7426 14.25 11.5C14.25 10.2574 13.2426 9.25 12 9.25C10.7574 9.25 9.75 10.2574 9.75 11.5C9.75 12.7426 10.7574 13.75 12 13.75Z"
    fill="currentColor"
  />
</svg>
