<svg width="800" height="600" viewBox="0 0 800 600" fill="none" xmlns="http://www.w3.org/2000/svg">
  <rect width="800" height="600" fill="#4F46E5"/>
  <circle cx="400" cy="300" r="200" fill="#6366F1" fill-opacity="0.5"/>
  <circle cx="200" cy="150" r="100" fill="#818CF8" fill-opacity="0.5"/>
  <circle cx="600" cy="450" r="100" fill="#818CF8" fill-opacity="0.5"/>
  <path d="M100 400C100 322.68 162.68 260 240 260H380C457.32 260 520 322.68 520 400C520 477.32 457.32 540 380 540H240C162.68 540 100 477.32 100 400Z" fill="#A5B4FC" fill-opacity="0.3"/>
  <path d="M240 300C184.77 300 140 344.77 140 400C140 455.23 184.77 500 240 500H380C435.23 500 480 455.23 480 400C480 344.77 435.23 300 380 300H240Z" fill="#C7D2FE" fill-opacity="0.3"/>
  <circle cx="240" cy="400" r="40" fill="white" fill-opacity="0.2"/>
  <circle cx="380" cy="400" r="40" fill="white" fill-opacity="0.2"/>
</svg>
