<?xml version="1.0" encoding="UTF-8"?>
<!DOCTYPE svg PUBLIC "-//W3C//DTD SVG 1.1//EN" "http://www.w3.org/Graphics/SVG/1.1/DTD/svg11.dtd">
<svg xmlns="http://www.w3.org/2000/svg" version="1.1" width="1024px" height="1024px" style="shape-rendering:geometricPrecision; text-rendering:geometricPrecision; image-rendering:optimizeQuality; fill-rule:evenodd; clip-rule:evenodd" xmlns:xlink="http://www.w3.org/1999/xlink">
<g><path style="opacity:1" fill="#fcfcfc" d="M -0.5,-0.5 C 340.833,-0.5 682.167,-0.5 1023.5,-0.5C 1023.5,168.167 1023.5,336.833 1023.5,505.5C 1014.68,473.027 993.343,456.027 959.5,454.5C 923.192,458.976 903.192,479.476 899.5,516C 900.76,550.577 918.094,571.911 951.5,580C 977.228,583.208 998.062,574.708 1014,554.5C 1017.03,549.779 1019.53,544.779 1021.5,539.5C 1013.85,538.335 1006.19,538.169 998.5,539C 983.508,560.073 964.174,565.073 940.5,554C 930.631,547.753 924.631,538.92 922.5,527.5C 922.5,526.5 922.5,525.5 922.5,524.5C 956.167,524.5 989.833,524.5 1023.5,524.5C 1023.5,690.833 1023.5,857.167 1023.5,1023.5C 682.167,1023.5 340.833,1023.5 -0.5,1023.5C -0.5,874.833 -0.5,726.167 -0.5,577.5C 7.16667,577.5 14.8333,577.5 22.5,577.5C 22.5,556.5 22.5,535.5 22.5,514.5C 31.5,514.5 40.5,514.5 49.5,514.5C 61.4043,534.635 73.0709,554.968 84.5,575.5C 88.6139,576.826 93.1139,577.493 98,577.5C 102.68,577.499 107.18,577.166 111.5,576.5C 99.0452,555.093 86.7118,533.593 74.5,512C 99.3175,501.467 110.484,482.634 108,455.5C 103.384,434.217 90.5511,420.717 69.5,415C 46.2054,413.563 22.872,413.063 -0.5,413.5C -0.5,275.5 -0.5,137.5 -0.5,-0.5 Z"/></g>
<g><path style="opacity:1" fill="#1d437b" d="M 561.5,185.5 C 576.904,186.175 592.237,187.675 607.5,190C 623.984,194.165 636.818,203.331 646,217.5C 655.698,232.893 664.365,248.893 672,265.5C 672.75,266.126 673.584,266.626 674.5,267C 682.479,268.164 690.479,269.164 698.5,270C 715.068,275.068 724.068,286.235 725.5,303.5C 725.666,312.506 725.5,321.506 725,330.5C 695.303,313.996 664.137,301.329 631.5,292.5C 632.239,292.631 632.906,292.464 633.5,292C 632.624,290.415 631.291,289.415 629.5,289C 630.833,288.667 632.167,288.333 633.5,288C 630.132,287.457 626.799,287.624 623.5,288.5C 623.5,283.833 623.5,279.167 623.5,274.5C 626.167,274.5 628.833,274.5 631.5,274.5C 631.5,273.5 631.5,272.5 631.5,271.5C 635.015,270.206 638.682,269.372 642.5,269C 640.527,268.505 638.527,268.338 636.5,268.5C 642.682,267.44 649.015,266.44 655.5,265.5C 648.263,250.015 639.763,235.348 630,221.5C 622.192,211.679 612.025,206.179 599.5,205C 592.154,204.583 584.821,204.083 577.5,203.5C 579.865,209.53 578.198,214.03 572.5,217C 564.507,217.5 556.507,217.666 548.5,217.5C 548.5,233.833 548.5,250.167 548.5,266.5C 547.669,251.339 547.169,236.005 547,220.5C 546.667,236.167 546.333,251.833 546,267.5C 545.667,268.833 545.333,270.167 545,271.5C 544.313,269.432 544.48,267.432 545.5,265.5C 545.154,264.304 544.654,264.304 544,265.5C 543.5,256.84 543.334,248.173 543.5,239.5C 542.167,239.5 540.833,239.5 539.5,239.5C 539.079,244.633 540.079,249.466 542.5,254C 540.796,257.426 539.296,260.926 538,264.5C 537,265.833 536,265.833 535,264.5C 534.722,265.416 534.222,266.082 533.5,266.5C 533.5,250.167 533.5,233.833 533.5,217.5C 525.16,217.666 516.827,217.5 508.5,217C 504.053,214.156 502.719,210.323 504.5,205.5C 504.312,207.103 504.812,208.437 506,209.5C 507.282,206.872 507.615,203.872 507,200.5C 508.574,201.984 509.907,203.651 511,205.5C 510.598,203.126 510.764,200.793 511.5,198.5C 509.422,196.014 506.755,195.014 503.5,195.5C 503.5,193.833 503.5,192.167 503.5,190.5C 511.508,190.899 519.508,191.065 527.5,191C 520.525,190.079 513.525,189.412 506.5,189C 513.5,188.667 520.5,188.333 527.5,188C 524.833,187.667 522.167,187.333 519.5,187C 533.673,186.831 547.673,186.331 561.5,185.5 Z"/></g>
<g><path style="opacity:1" fill="#f8f8f9" d="M 504.5,205.5 C 502.719,210.323 504.053,214.156 508.5,217C 516.827,217.5 525.16,217.666 533.5,217.5C 533.5,233.833 533.5,250.167 533.5,266.5C 527.347,267.653 521.014,267.82 514.5,267C 511.348,263.846 507.681,261.513 503.5,260C 493.331,260.602 483.165,260.435 473,259.5C 465.657,259.166 459.823,262 455.5,268C 445.838,268.123 436.171,267.956 426.5,267.5C 433.513,250.472 442.346,234.472 453,219.5C 465.389,207.256 480.389,201.923 498,203.5C 500.61,203.533 502.777,204.2 504.5,205.5 Z"/></g>
<g><path style="opacity:1" fill="#f9f9fa" d="M 636.5,268.5 C 633.482,268.665 630.482,268.498 627.5,268C 622.904,262.202 616.904,259.369 609.5,259.5C 598.837,260.381 588.17,260.547 577.5,260C 573.928,261.569 570.928,263.902 568.5,267C 561.654,267.821 554.987,267.654 548.5,266.5C 548.5,250.167 548.5,233.833 548.5,217.5C 556.507,217.666 564.507,217.5 572.5,217C 578.198,214.03 579.865,209.53 577.5,203.5C 584.821,204.083 592.154,204.583 599.5,205C 612.025,206.179 622.192,211.679 630,221.5C 639.763,235.348 648.263,250.015 655.5,265.5C 649.015,266.44 642.682,267.44 636.5,268.5 Z"/></g>
<g><path style="opacity:1" fill="#1d427b" d="M 591.5,216.5 C 608.586,215.601 616.419,223.601 615,240.5C 611.058,251.56 603.224,256.06 591.5,254C 577.955,247.221 574.789,237.055 582,223.5C 585.068,220.917 588.235,218.584 591.5,216.5 Z"/></g>
<g><path style="opacity:1" fill="#1a417c" d="M 480.5,216.5 C 491.655,214.991 499.488,219.324 504,229.5C 506.249,241.441 501.749,249.608 490.5,254C 473.98,254.813 466.147,246.98 467,230.5C 469.713,223.956 474.213,219.289 480.5,216.5 Z"/></g>
<g><path style="opacity:1" fill="#1c417b" d="M 382.5,245.5 C 390.279,245.068 397.946,245.568 405.5,247C 408.429,251.679 407.763,255.679 403.5,259C 396.5,259.667 389.5,259.667 382.5,259C 378.53,254.43 378.53,249.93 382.5,245.5 Z"/></g>
<g><path style="opacity:1" fill="#1b417d" d="M 678.5,245.5 C 685.508,245.334 692.508,245.5 699.5,246C 703.5,250.333 703.5,254.667 699.5,259C 692.5,259.667 685.5,259.667 678.5,259C 674.53,254.43 674.53,249.93 678.5,245.5 Z"/></g>
<g><path style="opacity:1" fill="#1d427c" d="M 561.5,185.5 C 547.673,186.331 533.673,186.831 519.5,187C 522.167,187.333 524.833,187.667 527.5,188C 520.5,188.333 513.5,188.667 506.5,189C 513.525,189.412 520.525,190.079 527.5,191C 519.508,191.065 511.508,190.899 503.5,190.5C 503.5,192.167 503.5,193.833 503.5,195.5C 506.755,195.014 509.422,196.014 511.5,198.5C 510.764,200.793 510.598,203.126 511,205.5C 509.907,203.651 508.574,201.984 507,200.5C 507.615,203.872 507.282,206.872 506,209.5C 504.812,208.437 504.312,207.103 504.5,205.5C 502.777,204.2 500.61,203.533 498,203.5C 480.389,201.923 465.389,207.256 453,219.5C 442.346,234.472 433.513,250.472 426.5,267.5C 436.171,267.956 445.838,268.123 455.5,268C 459.823,262 465.657,259.166 473,259.5C 483.165,260.435 493.331,260.602 503.5,260C 507.681,261.513 511.348,263.846 514.5,267C 521.014,267.82 527.347,267.653 533.5,266.5C 534.222,266.082 534.722,265.416 535,264.5C 536,265.833 537,265.833 538,264.5C 539.296,260.926 540.796,257.426 542.5,254C 540.079,249.466 539.079,244.633 539.5,239.5C 540.833,239.5 542.167,239.5 543.5,239.5C 543.334,248.173 543.5,256.84 544,265.5C 544.654,264.304 545.154,264.304 545.5,265.5C 544.48,267.432 544.313,269.432 545,271.5C 545.333,270.167 545.667,268.833 546,267.5C 546.333,251.833 546.667,236.167 547,220.5C 547.169,236.005 547.669,251.339 548.5,266.5C 554.987,267.654 561.654,267.821 568.5,267C 570.928,263.902 573.928,261.569 577.5,260C 588.17,260.547 598.837,260.381 609.5,259.5C 616.904,259.369 622.904,262.202 627.5,268C 630.482,268.498 633.482,268.665 636.5,268.5C 638.527,268.338 640.527,268.505 642.5,269C 638.682,269.372 635.015,270.206 631.5,271.5C 631.5,272.5 631.5,273.5 631.5,274.5C 628.833,274.5 626.167,274.5 623.5,274.5C 623.5,279.167 623.5,283.833 623.5,288.5C 626.799,287.624 630.132,287.457 633.5,288C 632.167,288.333 630.833,288.667 629.5,289C 631.291,289.415 632.624,290.415 633.5,292C 632.906,292.464 632.239,292.631 631.5,292.5C 569.406,279.177 507.073,278.01 444.5,289C 429.63,292.302 414.963,295.969 400.5,300C 406.359,292.395 405.692,285.395 398.5,279C 387.434,275.363 380.767,279.196 378.5,290.5C 378.975,296.788 381.975,301.288 387.5,304C 377.615,307.567 367.948,311.4 358.5,315.5C 357.5,315.5 356.5,315.5 355.5,315.5C 353.323,295.348 360.99,280.515 378.5,271C 389.226,269.821 399.893,268.321 410.5,266.5C 418.905,244.35 430.405,224.016 445,205.5C 458.45,193.457 474.284,187.29 492.5,187C 515.496,184.583 538.496,184.083 561.5,185.5 Z"/></g>
<g><path style="opacity:1" fill="#f6f7f9" d="M 686.5,277.5 C 698.705,277.533 703.871,283.533 702,295.5C 698.56,302.214 693.06,304.714 685.5,303C 677.122,298 675.288,291.167 680,282.5C 681.965,280.45 684.132,278.783 686.5,277.5 Z"/></g>
<g><path style="opacity:1" fill="#f6f7f9" d="M 631.5,292.5 C 664.137,301.329 695.303,313.996 725,330.5C 725.5,321.506 725.666,312.506 725.5,303.5C 726.494,312.652 726.827,321.985 726.5,331.5C 724.401,330.769 722.401,330.769 720.5,331.5C 721.025,332.192 721.692,332.692 722.5,333C 720.385,335.2 718.051,337.2 715.5,339C 716.056,339.383 716.389,339.883 716.5,340.5C 649.999,305.098 578.999,289.931 503.5,295C 456.857,297.214 411.857,306.714 368.5,323.5C 369.677,321.897 369.511,320.564 368,319.5C 367.586,319.957 367.086,320.291 366.5,320.5C 363.569,319.123 360.903,317.456 358.5,315.5C 367.948,311.4 377.615,307.567 387.5,304C 381.975,301.288 378.975,296.788 378.5,290.5C 380.767,279.196 387.434,275.363 398.5,279C 405.692,285.395 406.359,292.395 400.5,300C 414.963,295.969 429.63,292.302 444.5,289C 507.073,278.01 569.406,279.177 631.5,292.5 Z"/></g>
<g><path style="opacity:1" fill="#1b417a" d="M 716.5,340.5 C 748.346,358.995 776.346,382.328 800.5,410.5C 755.336,411.499 710.003,411.832 664.5,411.5C 658.6,400.416 650.933,390.583 641.5,382C 611.121,357.149 576.454,341.482 537.5,335C 476.343,324.483 415.677,326.816 355.5,342C 331.096,347.857 307.096,355.024 283.5,363.5C 282.304,363.154 282.304,362.654 283.5,362C 311.147,347.508 339.48,334.674 368.5,323.5C 411.857,306.714 456.857,297.214 503.5,295C 578.999,289.931 649.999,305.098 716.5,340.5 Z"/></g>
<g><path style="opacity:1" fill="#7990b0" d="M 800.5,410.5 C 801.043,410.56 801.376,410.893 801.5,411.5C 755.668,412.831 710.002,412.831 664.5,411.5C 710.003,411.832 755.336,411.499 800.5,410.5 Z"/></g>
<g><path style="opacity:1" fill="#1a407a" d="M 145.5,413.5 C 145.5,421.833 145.5,430.167 145.5,438.5C 139.31,438.177 133.31,438.51 127.5,439.5C 126.167,439.5 124.833,439.5 123.5,439.5C 123.5,430.833 123.5,422.167 123.5,413.5C 130.833,413.5 138.167,413.5 145.5,413.5 Z"/></g>
<g><path style="opacity:1" fill="#1a417a" d="M -0.5,413.5 C 22.872,413.063 46.2054,413.563 69.5,415C 90.5511,420.717 103.384,434.217 108,455.5C 110.484,482.634 99.3175,501.467 74.5,512C 86.7118,533.593 99.0452,555.093 111.5,576.5C 102.416,576.804 93.4161,576.471 84.5,575.5C 73.0709,554.968 61.4043,534.635 49.5,514.5C 40.3483,513.506 31.015,513.173 21.5,513.5C 21.5,534.5 21.5,555.5 21.5,576.5C 14.1667,576.5 6.83333,576.5 -0.5,576.5C -0.5,522.167 -0.5,467.833 -0.5,413.5 Z"/></g>
<g><path style="opacity:1" fill="#fcfcfc" d="M 61.5,436.5 C 79.831,441.46 87.331,453.46 84,472.5C 80.737,483.264 73.5703,489.597 62.5,491.5C 49.1667,491.5 35.8333,491.5 22.5,491.5C 22.5,473.167 22.5,454.833 22.5,436.5C 35.5,436.5 48.5,436.5 61.5,436.5 Z"/></g>
<g><path style="opacity:1" fill="#506d96" d="M 145.5,413.5 C 146.493,421.984 146.826,430.651 146.5,439.5C 140.167,439.5 133.833,439.5 127.5,439.5C 133.31,438.51 139.31,438.177 145.5,438.5C 145.5,430.167 145.5,421.833 145.5,413.5 Z"/></g>
<g><path style="opacity:1" fill="#d7dbe1" d="M 586.5,414.5 C 587.332,431.328 587.832,448.328 588,465.5C 589.395,466.815 590.395,466.481 591,464.5C 591.464,465.094 591.631,465.761 591.5,466.5C 590.521,468.145 589.188,469.479 587.5,470.5C 586.5,451.845 586.167,433.179 586.5,414.5 Z"/></g>
<g><path style="opacity:1" fill="#1c427b" d="M 263.5,414.5 C 270.833,414.5 278.167,414.5 285.5,414.5C 285.667,452.835 285.5,491.168 285,529.5C 276.492,562.168 255.325,579.168 221.5,580.5C 191.32,578.48 171.487,563.147 162,534.5C 155.635,504.099 165.135,480.265 190.5,463C 211.159,451.668 231.825,451.668 252.5,463C 256.458,465.234 259.958,468.067 263,471.5C 263.5,452.503 263.667,433.503 263.5,414.5 Z"/></g>
<g><path style="opacity:1" fill="#b1bdd3" d="M 61.5,436.5 C 48.5,436.5 35.5,436.5 22.5,436.5C 22.5,454.833 22.5,473.167 22.5,491.5C 35.8333,491.5 49.1667,491.5 62.5,491.5C 49.0102,492.496 35.3435,492.829 21.5,492.5C 21.5,473.5 21.5,454.5 21.5,435.5C 35.0105,435.171 48.3438,435.504 61.5,436.5 Z"/></g>
<g><path style="opacity:1" fill="#1a417a" d="M 585.5,414.5 C 585.833,414.5 586.167,414.5 586.5,414.5C 586.167,433.179 586.5,451.845 587.5,470.5C 589.188,469.479 590.521,468.145 591.5,466.5C 609.438,453.142 628.772,450.976 649.5,460C 662.93,468.102 670.763,479.936 673,495.5C 673.5,522.498 673.667,549.498 673.5,576.5C 666.167,576.5 658.833,576.5 651.5,576.5C 651.956,549.457 651.456,522.457 650,495.5C 645.372,481.262 635.538,474.596 620.5,475.5C 601.991,477.171 590.824,487.171 587,505.5C 586.5,529.164 586.333,552.831 586.5,576.5C 586.167,576.5 585.833,576.5 585.5,576.5C 585.667,560.163 585.5,543.83 585,527.5C 584.5,543.497 584.333,559.497 584.5,575.5C 578.5,575.5 572.5,575.5 566.5,575.5C 566.5,522.167 566.5,468.833 566.5,415.5C 573.022,415.823 579.355,415.49 585.5,414.5 Z"/></g>
<g><path style="opacity:1" fill="#1a417a" d="M 810.5,576.5 C 803.167,576.5 795.833,576.5 788.5,576.5C 788.835,571.722 788.502,567.722 787.5,564.5C 766.999,581.398 744.332,584.898 719.5,575C 690.447,557.381 679.614,531.881 687,498.5C 695.285,475.215 711.452,460.715 735.5,455C 755.472,452.603 772.805,458.103 787.5,471.5C 788.493,466.88 788.827,462.214 788.5,457.5C 795.833,457.5 803.167,457.5 810.5,457.5C 810.5,497.167 810.5,536.833 810.5,576.5 Z"/></g>
<g><path style="opacity:1" fill="#19407a" d="M 896.5,475.5 C 890.915,476.288 885.248,476.788 879.5,477C 878.263,477.232 877.263,477.732 876.5,478.5C 860.375,483.625 851.709,494.625 850.5,511.5C 850.167,511.5 849.833,511.5 849.5,511.5C 848.503,532.66 848.169,553.993 848.5,575.5C 842.167,575.5 835.833,575.5 829.5,575.5C 829.832,536.33 829.499,497.33 828.5,458.5C 828.5,458.167 828.5,457.833 828.5,457.5C 835.5,457.5 842.5,457.5 849.5,457.5C 849.172,462.875 849.505,468.208 850.5,473.5C 851.107,473.376 851.44,473.043 851.5,472.5C 864.84,457.719 881.506,452.052 901.5,455.5C 899.831,462.173 898.164,468.839 896.5,475.5 Z"/></g>
<g><path style="opacity:1" fill="#1b417a" d="M 423.5,523.5 C 389.167,523.5 354.833,523.5 320.5,523.5C 320.232,525.099 320.566,526.432 321.5,527.5C 328.596,551.411 344.596,561.911 369.5,559C 381.689,556.247 391.022,549.58 397.5,539C 405.159,538.5 412.826,538.334 420.5,538.5C 412.22,562.268 395.553,576.102 370.5,580C 342.325,582.995 320.825,572.495 306,548.5C 292.288,518.532 297.121,492.032 320.5,469C 343.654,451.615 367.987,449.948 393.5,464C 414.267,478.367 424.267,498.2 423.5,523.5 Z"/></g>
<g><path style="opacity:1" fill="#1b417b" d="M 1023.5,505.5 C 1023.5,511.5 1023.5,517.5 1023.5,523.5C 989.5,523.5 955.5,523.5 921.5,523.5C 921.232,525.099 921.566,526.432 922.5,527.5C 924.631,538.92 930.631,547.753 940.5,554C 964.174,565.073 983.508,560.073 998.5,539C 1006.19,538.169 1013.85,538.335 1021.5,539.5C 1019.53,544.779 1017.03,549.779 1014,554.5C 998.062,574.708 977.228,583.208 951.5,580C 918.094,571.911 900.76,550.577 899.5,516C 903.192,479.476 923.192,458.976 959.5,454.5C 993.343,456.027 1014.68,473.027 1023.5,505.5 Z"/></g>
<g><path style="opacity:1" fill="#5a74a0" d="M 849.5,457.5 C 850.167,462.5 850.833,467.5 851.5,472.5C 851.44,473.043 851.107,473.376 850.5,473.5C 849.505,468.208 849.172,462.875 849.5,457.5 Z"/></g>
<g><path style="opacity:1" fill="#f8f9fa" d="M 351.5,475.5 C 369.599,473.141 384.099,479.141 395,493.5C 397.364,497.219 398.864,501.219 399.5,505.5C 373.833,505.5 348.167,505.5 322.5,505.5C 324.398,496.403 329.064,488.903 336.5,483C 341.237,479.711 346.237,477.211 351.5,475.5 Z"/></g>
<g><path style="opacity:1" fill="#fbfbfb" d="M 215.5,475.5 C 240.502,473.737 256.669,484.737 264,508.5C 265.806,544.027 248.973,560.861 213.5,559C 188.766,550.039 178.599,532.539 183,506.5C 188.193,490.138 199.026,479.805 215.5,475.5 Z"/></g>
<g><path style="opacity:1" fill="#fbfbfb" d="M 738.5,475.5 C 764.672,473.199 781.505,484.532 789,509.5C 790.318,544.516 773.484,561.016 738.5,559C 714.198,550.915 703.698,534.081 707,508.5C 711.914,492.088 722.414,481.088 738.5,475.5 Z"/></g>
<g><path style="opacity:1" fill="#a7b7cc" d="M 896.5,475.5 C 890.23,477.332 883.564,478.332 876.5,478.5C 877.263,477.732 878.263,477.232 879.5,477C 885.248,476.788 890.915,476.288 896.5,475.5 Z"/></g>
<g><path style="opacity:1" fill="#fafafa" d="M 1000.5,504.5 C 974.811,505.157 949.478,504.491 924.5,502.5C 928.588,489.911 936.922,481.411 949.5,477C 970.278,472.313 986.444,478.813 998,496.5C 999.341,499.022 1000.17,501.689 1000.5,504.5 Z"/></g>
<g><path style="opacity:1" fill="#1b417a" d="M 481.5,411.5 C 499.294,409.581 515.628,413.414 530.5,423C 541.673,431.848 547.673,443.348 548.5,457.5C 540.833,457.5 533.167,457.5 525.5,457.5C 523.553,444.717 516.22,436.884 503.5,434C 496.5,433.333 489.5,433.333 482.5,434C 463.156,441.7 458.823,454.366 469.5,472C 471.5,473.333 473.5,474.667 475.5,476C 490.73,480.975 506.063,485.641 521.5,490C 545.83,499.825 555.663,517.659 551,543.5C 544.815,563.015 531.648,574.848 511.5,579C 484.946,584.911 462.446,578.078 444,558.5C 437.394,549.614 433.894,539.614 433.5,528.5C 440.833,528.5 448.167,528.5 455.5,528.5C 458.565,545.399 468.565,555.566 485.5,559C 500.102,561.495 512.935,557.995 524,548.5C 534.21,532.106 530.71,519.606 513.5,511C 501.092,506.398 488.425,502.732 475.5,500C 449.323,492.146 437.823,474.646 441,447.5C 447.485,427.51 460.985,415.51 481.5,411.5 Z"/></g>
<g><path style="opacity:1" fill="#d2d8e3" d="M 924.5,502.5 C 949.478,504.491 974.811,505.157 1000.5,504.5C 975.005,505.498 949.339,505.831 923.5,505.5C 923.263,504.209 923.596,503.209 924.5,502.5 Z"/></g>
<g><path style="opacity:1" fill="#073072" d="M 828.5,458.5 C 829.499,497.33 829.832,536.33 829.5,575.5C 835.833,575.5 842.167,575.5 848.5,575.5C 848.169,553.993 848.503,532.66 849.5,511.5C 849.5,533.167 849.5,554.833 849.5,576.5C 842.5,576.5 835.5,576.5 828.5,576.5C 828.5,537.167 828.5,497.833 828.5,458.5 Z"/></g>
<g><path style="opacity:1" fill="#0c3373" d="M 565.5,414.5 C 572.167,414.5 578.833,414.5 585.5,414.5C 579.355,415.49 573.022,415.823 566.5,415.5C 566.5,468.833 566.5,522.167 566.5,575.5C 572.5,575.5 578.5,575.5 584.5,575.5C 584.333,559.497 584.5,543.497 585,527.5C 585.5,543.83 585.667,560.163 585.5,576.5C 578.833,576.5 572.167,576.5 565.5,576.5C 565.5,522.5 565.5,468.5 565.5,414.5 Z"/></g>
<g><path style="opacity:1" fill="#8fa6bf" d="M 423.5,523.5 C 389.671,524.498 355.671,524.832 321.5,524.5C 321.5,525.5 321.5,526.5 321.5,527.5C 320.566,526.432 320.232,525.099 320.5,523.5C 354.833,523.5 389.167,523.5 423.5,523.5 Z"/></g>
<g><path style="opacity:1" fill="#8ba0bb" d="M 1023.5,523.5 C 1023.5,523.833 1023.5,524.167 1023.5,524.5C 989.833,524.5 956.167,524.5 922.5,524.5C 922.5,525.5 922.5,526.5 922.5,527.5C 921.566,526.432 921.232,525.099 921.5,523.5C 955.5,523.5 989.5,523.5 1023.5,523.5 Z"/></g>
<g><path style="opacity:1" fill="#bac4d4" d="M 49.5,514.5 C 40.5,514.5 31.5,514.5 22.5,514.5C 22.5,535.5 22.5,556.5 22.5,577.5C 14.8333,577.5 7.16667,577.5 -0.5,577.5C -0.5,577.167 -0.5,576.833 -0.5,576.5C 6.83333,576.5 14.1667,576.5 21.5,576.5C 21.5,555.5 21.5,534.5 21.5,513.5C 31.015,513.173 40.3483,513.506 49.5,514.5 Z"/></g>
<g><path style="opacity:1" fill="#7b8fb2" d="M 124.5,457.5 C 124.5,497.167 124.5,536.833 124.5,576.5C 131.5,576.5 138.5,576.5 145.5,576.5C 145.5,536.833 145.5,497.167 145.5,457.5C 146.499,497.33 146.832,537.33 146.5,577.5C 138.833,577.5 131.167,577.5 123.5,577.5C 123.168,537.33 123.501,497.33 124.5,457.5 Z"/></g>
<g><path style="opacity:1" fill="#062e6e" d="M 124.5,457.5 C 124.833,457.5 125.167,457.5 125.5,457.5C 125.5,496.833 125.5,536.167 125.5,575.5C 131.833,575.5 138.167,575.5 144.5,575.5C 144.5,536.5 144.5,497.5 144.5,458.5C 138.642,458.822 132.975,458.489 127.5,457.5C 133.5,457.5 139.5,457.5 145.5,457.5C 145.5,497.167 145.5,536.833 145.5,576.5C 138.5,576.5 131.5,576.5 124.5,576.5C 124.5,536.833 124.5,497.167 124.5,457.5 Z"/></g>
<g><path style="opacity:1" fill="#184179" d="M 125.5,457.5 C 126.167,457.5 126.833,457.5 127.5,457.5C 132.975,458.489 138.642,458.822 144.5,458.5C 144.5,497.5 144.5,536.5 144.5,575.5C 138.167,575.5 131.833,575.5 125.5,575.5C 125.5,536.167 125.5,496.833 125.5,457.5 Z"/></g>
<g><path style="opacity:1" fill="#899cba" d="M 84.5,575.5 C 93.4161,576.471 102.416,576.804 111.5,576.5C 107.18,577.166 102.68,577.499 98,577.5C 93.1139,577.493 88.6139,576.826 84.5,575.5 Z"/></g>
<g><path style="opacity:1" fill="#738aac" d="M 565.5,414.5 C 565.5,468.5 565.5,522.5 565.5,576.5C 572.167,576.5 578.833,576.5 585.5,576.5C 585.833,576.5 586.167,576.5 586.5,576.5C 579.352,577.492 572.019,577.825 564.5,577.5C 564.168,522.997 564.501,468.664 565.5,414.5 Z"/></g>
<g><path style="opacity:1" fill="#8092b2" d="M 810.5,576.5 C 803.018,577.492 795.352,577.825 787.5,577.5C 787.5,573.167 787.5,568.833 787.5,564.5C 788.502,567.722 788.835,571.722 788.5,576.5C 795.833,576.5 803.167,576.5 810.5,576.5 Z"/></g>
<g><path style="opacity:1" fill="#788ead" d="M 828.5,457.5 C 828.5,457.833 828.5,458.167 828.5,458.5C 828.5,497.833 828.5,537.167 828.5,576.5C 835.5,576.5 842.5,576.5 849.5,576.5C 849.5,554.833 849.5,533.167 849.5,511.5C 849.833,511.5 850.167,511.5 850.5,511.5C 850.5,533.5 850.5,555.5 850.5,577.5C 842.833,577.5 835.167,577.5 827.5,577.5C 827.168,537.33 827.501,497.33 828.5,457.5 Z"/></g>
<g><path style="opacity:1" fill="#5b799e" d="M 536.5,623.5 C 536.5,623.167 536.5,622.833 536.5,622.5C 638.5,622.5 740.5,622.5 842.5,622.5C 842.5,627.5 842.5,632.5 842.5,637.5C 790.167,637.5 737.833,637.5 685.5,637.5C 685.5,636.833 685.833,636.5 686.5,636.5C 738.167,636.5 789.833,636.5 841.5,636.5C 841.5,632.167 841.5,627.833 841.5,623.5C 739.833,623.5 638.167,623.5 536.5,623.5 Z"/></g>
<g><path style="opacity:1" fill="#052e6e" d="M 182.5,623.5 C 284.167,623.333 385.834,623.5 487.5,624C 386.167,624.5 284.834,624.667 183.5,624.5C 183.5,628.167 183.5,631.833 183.5,635.5C 235.501,635.333 287.501,635.5 339.5,636C 287.168,636.5 234.834,636.667 182.5,636.5C 182.5,632.167 182.5,627.833 182.5,623.5 Z"/></g>
<g><path style="opacity:1" fill="#052f6e" d="M 536.5,623.5 C 638.167,623.5 739.833,623.5 841.5,623.5C 841.5,627.833 841.5,632.167 841.5,636.5C 789.833,636.5 738.167,636.5 686.5,636.5C 737.664,635.501 788.997,635.168 840.5,635.5C 840.5,631.833 840.5,628.167 840.5,624.5C 738.999,624.833 637.665,624.499 536.5,623.5 Z"/></g>
<g><path style="opacity:1" fill="#1d417b" d="M 536.5,622.5 C 536.5,622.833 536.5,623.167 536.5,623.5C 637.665,624.499 738.999,624.833 840.5,624.5C 840.5,628.167 840.5,631.833 840.5,635.5C 788.997,635.168 737.664,635.501 686.5,636.5C 685.833,636.5 685.5,636.833 685.5,637.5C 685.5,654.833 685.5,672.167 685.5,689.5C 697.077,692.576 704.577,699.909 708,711.5C 709.833,728.334 703,740.167 687.5,747C 681.833,747.667 676.167,747.667 670.5,747C 665.334,744.92 660.667,742.087 656.5,738.5C 619.407,755.798 582.574,773.465 546,791.5C 548.76,823.074 534.26,837.907 502.5,836C 489.087,831.006 480.92,821.506 478,807.5C 477.771,801.896 477.604,796.396 477.5,791C 441.167,773.5 404.833,756 368.5,738.5C 356.54,748.645 343.54,750.145 329.5,743C 319.079,735.087 314.913,724.587 317,711.5C 320.565,700.268 327.898,692.601 339,688.5C 339.5,671.503 339.667,654.503 339.5,637.5C 286.997,637.832 234.664,637.499 182.5,636.5C 234.834,636.667 287.168,636.5 339.5,636C 287.501,635.5 235.501,635.333 183.5,635.5C 183.5,631.833 183.5,628.167 183.5,624.5C 284.834,624.667 386.167,624.5 487.5,624C 385.834,623.5 284.167,623.333 182.5,623.5C 284.333,622.667 386.333,622.167 488.5,622C 504.606,609.285 520.606,609.452 536.5,622.5 Z"/></g>
<g><path style="opacity:1" fill="#f9f9fb" d="M 506.5,781.5 C 519.151,779.906 527.985,784.906 533,796.5C 534.843,809.32 529.677,817.82 517.5,822C 504.97,824.317 496.47,819.484 492,807.5C 490.426,798.721 492.926,791.388 499.5,785.5C 501.765,783.873 504.099,782.539 506.5,781.5 Z"/></g>
<g><path style="opacity:1" fill="#9caec2" d="M 503.5,681.5 C 504.833,695.484 505.499,709.817 505.5,724.5C 505.5,739.004 505.167,753.337 504.5,767.5C 504.825,738.76 504.491,710.093 503.5,681.5 Z"/></g>
<g><path style="opacity:1" fill="#f7f7f9" d="M 672.5,702.5 C 688.562,700.73 695.729,707.73 694,723.5C 687.381,734.932 678.547,737.099 667.5,730C 659.595,719.06 661.262,709.894 672.5,702.5 Z"/></g>
<g><path style="opacity:1" fill="#f7f8fa" d="M 342.5,701.5 C 359.399,702.968 364.899,711.635 359,727.5C 352.402,734.043 344.902,735.209 336.5,731C 328.579,722.315 328.579,713.648 336.5,705C 338.727,704.059 340.727,702.892 342.5,701.5 Z"/></g>
<g><path style="opacity:1" fill="#fbfbfc" d="M 532.5,675.5 C 534.199,675.34 535.866,675.506 537.5,676C 574.483,688.659 611.483,701.159 648.5,713.5C 649.088,717.892 649.088,722.226 648.5,726.5C 611.909,743.713 575.409,761.046 539,778.5C 533.428,774.101 527.261,770.767 520.5,768.5C 519.5,739.508 519.167,710.508 519.5,681.5C 524.522,680.82 528.856,678.82 532.5,675.5 Z"/></g>
<g><path style="opacity:1" fill="#fbfbfc" d="M 503.5,681.5 C 504.491,710.093 504.825,738.76 504.5,767.5C 497.65,769.511 491.65,773.011 486.5,778C 485.5,778.667 484.5,778.667 483.5,778C 447.955,760.727 412.288,743.727 376.5,727C 375.167,722.333 375.167,717.667 376.5,713C 414.297,700.29 452.131,687.79 490,675.5C 494.207,678.188 498.707,680.188 503.5,681.5 Z"/></g>
<g><path style="opacity:1" fill="#fbfbfc" d="M 670.5,637.5 C 670.5,654.833 670.5,672.167 670.5,689.5C 667.984,689.755 665.65,690.589 663.5,692C 659.951,695.057 656.284,697.891 652.5,700.5C 616.167,687.945 579.834,675.612 543.5,663.5C 546.395,655.3 547.062,646.967 545.5,638.5C 586.997,637.501 628.663,637.168 670.5,637.5 Z"/></g>
<g><path style="opacity:1" fill="#fbfbfc" d="M 353.5,637.5 C 395.167,637.5 436.833,637.5 478.5,637.5C 478.5,638.833 478.5,640.167 478.5,641.5C 477.85,648.777 478.85,655.777 481.5,662.5C 444.768,674.966 408.101,687.633 371.5,700.5C 366.588,695.13 360.755,691.13 354,688.5C 353.5,671.503 353.333,654.503 353.5,637.5 Z"/></g>
<g><path style="opacity:1" fill="#677fa2" d="M 670.5,637.5 C 628.663,637.168 586.997,637.501 545.5,638.5C 544.957,638.44 544.624,638.107 544.5,637.5C 586.665,636.169 628.665,636.169 670.5,637.5 Z"/></g>
<g><path style="opacity:1" fill="#637ca0" d="M 353.5,637.5 C 395.33,636.501 437.33,636.168 479.5,636.5C 479.784,638.415 479.451,640.081 478.5,641.5C 478.5,640.167 478.5,638.833 478.5,637.5C 436.833,637.5 395.167,637.5 353.5,637.5 Z"/></g>
<g><path style="opacity:1" fill="#f8f9fa" d="M 507.5,626.5 C 526.046,626.208 534.212,635.208 532,653.5C 526.751,666.706 517.251,671.206 503.5,667C 491.536,658.979 488.703,648.479 495,635.5C 498.651,631.609 502.818,628.609 507.5,626.5 Z"/></g>
</svg>
