<svg xmlns="http://www.w3.org/2000/svg" viewBox="0 0 3000 3000" fill="black">
  <g>
    <path d="M1440 2481 c-30 -12 -45 -13 -100 -9 -60 -22 -75 -46 -75 -124 0-38 -5-62 -16-72 -22 -22 -11 -33 41 -40 43 -7 59 -26 35 -41 -17 -11 -11 -23 25 -51l35 -26 36 27c42 32 47 43 25 53 -10 5 -21 19 -24 32 -6 23 -4 24 54 27 46 2 66 7 80 22 24 23 23 86 -2 130 -32 56 -74 74 -114 52z m117 -71c12 -15 18 -39 18 -73 0 -44 -4 -54 -31 -77 -22 -18 -32 -36 -33 -56 -1 -38 -30 -40 -34 -2 -2 15 -16 38 -33 52 -26 22 -29 31 -29 83 0 83 18 107 78 100 31 -3 52 -12 64 -27z"/>
    <path d="M1353 2421 c-45 -21 -67 -49 -78 -98 l-7 -33 232 0 232 0 -7 33 c-11 49 -33 77 -78 98 -58 26 -72 25 -53 -3 21 -29 20 -38 -2 -38 -10 0 -36 -13 -57 -29 l-39 -29 -35 29 c-20 16 -46 29 -59 29 l-23 0 21 30 c25 36 14 38 -47 11z m26 -64 c13 -16 5 -27 -20 -27 -21 0 -33 15 -24 30 9 14 31 12 44 -3z m284 -1 c7 -19 -1 -26 -30 -26 -24 0 -32 25 -10 33 22 10 35 7 40 -7z"/>
    <path d="M374 2434 c-48 -24 -79 -60 -66 -77 13 -16 18 -65 8 -88 -4 -9 -1 -23 6 -30 7 -8 20 -27 28 -43 13 -26 13 -29 -5 -42 -11 -8 -40 -20 -64 -26 -31 -8 -48 -19 -62 -42 -41 -67 -44 -66 201 -66 l220 0 0 24 c0 37 -35 72 -85 86 -62 17 -78 34 -62 63 6 12 18 29 25 39 8 9 12 25 11 35 -2 10 0 30 4 45 11 41 -8 75 -60 108 -55 34 -58 35 -99 14z m87 -55 c24 -17 29 -27 29 -62 0 -23 -9 -62 -20 -86 -11 -24 -20 -49 -20 -56 0 -23 41 -65 83 -84 l42 -19 -148 -1 c-96 -1 -146 2 -142 9 3 6 13 10 20 10 8 0 30 14 50 31 38 34 44 66 20 109 -21 38 -20 146 3 159 26 16 51 13 83 -10z"/>
    <path d="M2525 2431 c-16 -10 -38 -28 -49 -39 -15 -18 -17 -24 -6 -37 9 -10 10 -31 6 -64 -4 -29 -2 -52 3 -55 5 -4 16 -20 25 -36 18 -38 7 -52 -59 -70 -50 -14 -85 -49 -85 -86 l0 -24 220 0 c245 0 242 -1 201 66 -14 23 -31 34 -62 42 -24 6 -53 18 -64 26 -18 13 -18 16 -5 42 8 16 19 32 23 35 4 3 10 34 13 68 5 63 -11 111 -37 111 -6 0 -22 9 -36 20 -32 25 -50 25 -88 1z m85 -48 c14 -9 29 -22 33 -27 10 -15 -1 -94 -19 -128 -29 -57 -7 -105 62 -134 19 -8 34 -16 34 -19 0 -3 -66 -5 -147 -4 l-148 0 44 22 c24 12 53 34 65 50 18 25 19 31 7 60 -8 17 -17 61 -21 97 -6 58 -5 67 12 83 25 21 47 22 78 0z"/>
    <path d="M939 1557 c-68 -25 -105 -63 -140 -142 -24 -53 -99 -301 -99 -325 0 -9 10 -26 23 -38 l23 -22 755 0 756 0 22 24 c25 27 25 30 -5 136 -74 257 -102 311 -185 357 -32 17 -70 18 -574 20 -422 2 -548 0 -576 -10z m1161 -63 c43 -37 67 -87 116 -249 23 -77 45 -148 49 -157 7 -17 -34 -18 -765 -18 -731 0 -772 1 -765 18 4 9 26 80 49 157 49 162 73 212 116 249 l32 26 568 0 568 0 32 -26z"/>
    <path d="M640 753 c-59 -22 -74 -78 -41 -155 44 -100 84 -118 271 -118 139 0 140 0 172 28 25 24 31 36 30 66 -1 21 -11 53 -22 71 -37 59 -73 73 -242 95 -84 11 -153 20 -153 19 0 0 -7 -3 -15 -6z m162 -52 c92 -12 159 -26 177 -37 35 -21 66 -83 56 -113 -9 -29 -33 -33 -193 -29 -132 3 -142 4 -166 27 -20 19 -66 113 -66 136 0 6 31 35 38 35 4 0 73 -9 154 -19z"/>
    <path d="M2176 740 c-158 -22 -200 -41 -231 -107 -27 -57 -24 -91 13 -125 32 -28 32 -28 174 -28 183 0 212 12 258 102 36 74 39 116 7 146 -33 31 -65 33 -221 12z m198 -36 c20 -19 20 -13 -4 -77 -11 -30 -32 -65 -46 -78 -24 -23 -34 -24 -166 -27 -77 -2 -151 -1 -164 2 -32 8 -39 41 -19 85 25 56 60 71 208 91 173 23 173 23 191 4z"/>
  </g>
</svg>
