<svg width="231" height="48" viewBox="0 0 231 48" fill="none" xmlns="http://www.w3.org/2000/svg">
  <path d="M10 24C10 16.268 16.268 10 24 10H38C45.732 10 52 16.268 52 24C52 31.732 45.732 38 38 38H24C16.268 38 10 31.732 10 24Z" fill="#4F46E5"/>
  <path d="M24 14C18.477 14 14 18.477 14 24C14 29.523 18.477 34 24 34H38C43.523 34 48 29.523 48 24C48 18.477 43.523 14 38 14H24Z" fill="#6366F1"/>
  <path d="M24 18C20.686 18 18 20.686 18 24C18 27.314 20.686 30 24 30H38C41.314 30 44 27.314 44 24C44 20.686 41.314 18 38 18H24Z" fill="#818CF8"/>
  <circle cx="24" cy="24" r="4" fill="white"/>
  <circle cx="38" cy="24" r="4" fill="white"/>
  <path d="M65.936 32V16.8H69.584V28.992H76.448V32H65.936ZM78.7289 32V16.8H82.3769V32H78.7289ZM85.3729 32V16.8H88.9249L94.5889 26.432H94.7729V16.8H98.3249V32H94.7729L89.1089 22.368H88.9249V32H85.3729ZM101.321 32V16.8H111.833V19.808H104.969V22.816H111.097V25.824H104.969V28.992H111.833V32H101.321ZM118.883 32.288C117.787 32.288 116.787 32.096 115.883 31.712C114.979 31.328 114.243 30.768 113.675 30.032C113.107 29.296 112.803 28.416 112.763 27.392H116.667C116.731 27.968 116.971 28.432 117.387 28.784C117.803 29.136 118.323 29.312 118.947 29.312C119.595 29.312 120.099 29.168 120.459 28.88C120.819 28.576 120.999 28.176 120.999 27.68C120.999 27.264 120.859 26.928 120.579 26.672C120.315 26.416 119.979 26.208 119.571 26.048C119.179 25.888 118.619 25.712 117.891 25.52C116.859 25.248 116.019 24.976 115.371 24.704C114.723 24.432 114.163 24.016 113.691 23.456C113.219 22.896 112.983 22.144 112.983 21.2C112.983 19.824 113.467 18.752 114.435 17.984C115.403 17.2 116.699 16.808 118.323 16.808C119.979 16.808 121.291 17.2 122.259 17.984C123.227 18.752 123.739 19.824 123.787 21.2H119.827C119.795 20.704 119.579 20.304 119.179 20C118.795 19.68 118.299 19.52 117.691 19.52C117.163 19.52 116.739 19.664 116.419 19.952C116.099 20.224 115.939 20.608 115.939 21.104C115.939 21.648 116.195 22.064 116.707 22.352C117.219 22.64 118.003 22.928 119.059 23.216C120.091 23.52 120.923 23.808 121.555 24.08C122.203 24.352 122.763 24.768 123.235 25.328C123.707 25.888 123.943 26.624 123.943 27.536C123.943 28.384 123.723 29.152 123.283 29.84C122.859 30.528 122.235 31.072 121.411 31.472C120.587 32.016 119.819 32.288 118.883 32.288ZM126.191 32V16.8H129.839V22.816H134.831V16.8H138.479V32H134.831V25.824H129.839V32H126.191ZM146.273 32.288C144.993 32.288 143.857 32.016 142.865 31.472C141.873 30.912 141.089 30.128 140.513 29.12C139.953 28.096 139.673 26.896 139.673 25.52V23.28C139.673 21.904 139.953 20.712 140.513 19.704C141.089 18.68 141.873 17.896 142.865 17.352C143.857 16.792 144.993 16.512 146.273 16.512C147.553 16.512 148.689 16.792 149.681 17.352C150.673 17.896 151.449 18.68 152.009 19.704C152.585 20.712 152.873 21.904 152.873 23.28V25.52C152.873 26.896 152.585 28.096 152.009 29.12C151.449 30.128 150.673 30.912 149.681 31.472C148.689 32.016 147.553 32.288 146.273 32.288ZM146.273 29.024C147.153 29.024 147.857 28.736 148.385 28.16C148.913 27.568 149.177 26.768 149.177 25.76V23.04C149.177 22.032 148.913 21.24 148.385 20.664C147.857 20.072 147.153 19.776 146.273 19.776C145.393 19.776 144.689 20.072 144.161 20.664C143.633 21.24 143.369 22.032 143.369 23.04V25.76C143.369 26.768 143.633 27.568 144.161 28.16C144.689 28.736 145.393 29.024 146.273 29.024ZM155.121 32V16.8H158.673L164.337 26.432H164.521V16.8H168.073V32H164.521L158.857 22.368H158.673V32H155.121ZM171.069 32V16.8H181.581V19.808H174.717V22.816H180.845V25.824H174.717V28.992H181.581V32H171.069Z" fill="#4F46E5"/>
</svg>
