<?xml version="1.0" standalone="no"?>
<!DOCTYPE svg PUBLIC "-//W3C//DTD SVG 20010904//EN"
 "http://www.w3.org/TR/2001/REC-SVG-20010904/DTD/svg10.dtd">
<svg version="1.0" xmlns="http://www.w3.org/2000/svg"
 width="302.000000pt" height="271.000000pt" viewBox="0 0 302.000000 271.000000"
 preserveAspectRatio="xMidYMid meet">

<g transform="translate(0.000000,271.000000) scale(0.100000,-0.100000)"
fill="#000000" stroke="none">
<path d="M683 2449 c-126 -23 -214 -131 -214 -264 0 -150 113 -266 259 -266
70 0 114 13 163 47 104 72 140 209 86 326 -30 67 -68 105 -132 133 -61 28
-106 34 -162 24z m97 -60 c110 -25 184 -139 160 -246 -12 -53 -24 -59 -57 -29
-15 15 -38 29 -50 32 -18 5 -21 10 -13 24 15 28 12 78 -6 105 -21 32 -79 50
-116 36 -43 -16 -62 -54 -55 -111 3 -28 3 -50 -2 -50 -4 0 -26 -16 -49 -36
l-42 -35 -11 28 c-18 45 -13 126 10 171 34 66 94 106 181 121 3 0 25 -4 50
-10z m-16 -151 c15 -25 -4 -53 -35 -53 -17 0 -25 6 -27 23 -7 46 38 67 62 30z
m87 -175 l32 -31 -28 -18 c-50 -33 -119 -44 -176 -30 -87 23 -98 53 -33 97 24
16 42 19 102 17 65 -3 75 -6 103 -35z"/>
<path d="M1500 2445 c-19 -23 -5 -45 29 -45 46 0 50 40 5 54 -13 4 -26 1 -34
-9z"/>
<path d="M2333 2449 c-126 -23 -214 -131 -214 -264 0 -150 113 -266 259 -266
70 0 114 13 163 47 104 72 140 209 86 326 -30 67 -68 105 -132 133 -61 28
-106 34 -162 24z m142 -77 c84 -41 123 -115 116 -223 0 -14 -7 -34 -15 -44
-13 -18 -14 -17 -42 9 -16 14 -39 29 -51 32 -18 5 -21 10 -13 24 15 28 12 78
-6 105 -21 32 -79 50 -116 36 -43 -16 -62 -54 -55 -111 3 -28 3 -50 -2 -50 -4
0 -26 -16 -49 -36 l-42 -35 -11 28 c-6 15 -11 51 -11 79 1 154 161 254 297
186z m-61 -134 c15 -25 -4 -53 -35 -53 -17 0 -25 6 -27 23 -7 46 38 67 62 30z
m87 -175 l32 -31 -28 -18 c-50 -33 -119 -44 -176 -30 -87 23 -98 53 -33 97 24
16 42 19 102 17 65 -3 75 -6 103 -35z"/>
<path d="M1654 2435 c-11 -27 4 -47 33 -43 49 5 40 57 -10 58 -10 0 -20 -7
-23 -15z"/>
<path d="M1341 2427 c-20 -24 -2 -48 33 -45 26 2 31 7 31 28 0 19 -6 26 -26
28 -14 2 -31 -3 -38 -11z"/>
<path d="M1807 2413 c-13 -12 -7 -41 9 -47 44 -17 70 2 52 37 -9 17 -48 24
-61 10z"/>
<path d="M1190 2385 c-10 -12 -10 -18 0 -30 25 -30 80 -5 66 30 -7 19 -50 19
-66 0z"/>
<path d="M1954 2355 c-10 -25 4 -45 31 -45 33 0 45 28 20 46 -25 18 -44 18
-51 -1z"/>
<path d="M1057 2333 c-6 -11 10 -53 21 -53 20 0 43 26 36 43 -6 17 -49 24 -57
10z"/>
<path d="M1200 1859 c-35 -14 -69 -48 -91 -91 -18 -35 -22 -37 -71 -40 l-53
-3 -19 -76 c-25 -96 -20 -109 39 -109 41 0 46 -2 43 -21 -2 -14 -15 -25 -41
-34 -84 -29 -97 -61 -97 -245 0 -100 4 -151 14 -175 16 -37 68 -75 104 -75 18
0 22 -5 22 -34 0 -23 8 -42 26 -60 24 -24 34 -26 104 -26 93 0 119 15 129 76
l6 39 241 3 242 2 11 -44 c15 -63 39 -76 132 -76 69 0 79 2 103 26 18 18 26
37 26 60 0 29 4 34 23 34 35 0 87 38 103 75 10 24 14 75 14 175 0 119 -3 147
-19 178 -19 37 -65 72 -95 72 -10 0 -16 9 -16 25 0 23 3 25 50 25 34 0 52 5
56 14 3 7 -3 49 -13 92 l-18 79 -55 3 c-55 3 -56 3 -80 50 -16 30 -39 54 -65
69 -39 22 -45 23 -385 22 -205 0 -355 -4 -370 -10z m723 -60 c37 -17 54 -55
76 -179 12 -63 21 -118 21 -122 0 -4 -205 -8 -455 -8 -358 0 -455 3 -455 13 1
6 11 60 24 118 25 113 47 161 80 178 30 14 678 14 709 0z m-847 -151 c-3 -13
-6 -29 -6 -35 0 -7 -11 -13 -25 -13 -26 0 -29 9 -19 48 5 15 14 22 31 22 21 0
24 -4 19 -22z m1034 10 c0 -7 3 -23 6 -35 6 -20 3 -23 -25 -23 -18 0 -31 5
-31 13 0 6 -3 22 -6 35 -6 19 -3 22 25 22 18 0 31 -5 31 -12z m19 -254 c19
-24 21 -40 21 -164 0 -124 -2 -140 -21 -164 l-20 -26 -547 0 c-301 0 -552 4
-558 8 -27 18 -34 56 -34 185 0 121 2 137 21 161 l20 26 549 0 549 0 20 -26z
m-881 -441 c-3 -27 -5 -28 -68 -28 -63 0 -65 1 -68 28 l-3 27 71 0 71 0 -3
-27z m760 0 c-3 -27 -5 -28 -70 -31 -59 -3 -67 -1 -73 17 -10 34 3 41 76 41
l70 0 -3 -27z"/>
<path d="M1101 1326 c-70 -39 -66 -138 8 -176 48 -24 118 10 135 67 10 32 -18
89 -53 107 -36 19 -58 20 -90 2z m73 -62 c9 -8 16 -19 16 -24 0 -13 -30 -40
-44 -40 -31 0 -47 45 -24 68 16 16 33 15 52 -4z"/>
<path d="M1933 1330 c-32 -13 -57 -57 -56 -98 1 -27 9 -43 32 -64 46 -41 102
-35 143 16 56 69 -35 181 -119 146z m71 -72 c23 -37 -35 -78 -60 -43 -20 27 3
68 35 62 8 -1 19 -10 25 -19z"/>
<path d="M1326 1255 c-3 -8 -3 -22 0 -30 9 -22 459 -22 468 0 3 8 3 22 0 30
-9 22 -459 22 -468 0z"/>
<path d="M2497 1825 c-9 -21 26 -60 46 -52 20 7 22 38 5 55 -16 16 -45 15 -51
-3z"/>
<path d="M544 1765 c-19 -29 -13 -55 14 -55 41 0 57 51 22 70 -16 9 -22 6 -36
-15z"/>
<path d="M2557 1693 c-12 -11 -8 -41 8 -57 20 -20 45 -10 45 18 0 34 -34 59
-53 39z"/>
<path d="M502 1628 c-15 -15 -16 -54 -2 -63 6 -3 19 -3 30 0 25 8 28 60 4 69
-20 8 -18 8 -32 -6z"/>
<path d="M2590 1535 c-16 -19 1 -65 24 -65 33 0 42 52 12 72 -16 11 -22 10
-36 -7z"/>
<path d="M474 1466 c-9 -25 0 -51 20 -54 26 -5 40 12 32 42 -7 29 -43 36 -52
12z"/>
<path d="M2600 1355 c0 -41 23 -56 47 -32 24 24 9 67 -22 67 -22 0 -25 -4 -25
-35z"/>
<path d="M477 1323 c-4 -3 -7 -19 -7 -35 0 -34 25 -47 48 -25 13 13 13 21 4
42 -11 24 -31 32 -45 18z"/>
<path d="M2584 1205 c-8 -31 6 -48 32 -43 29 5 26 62 -3 66 -17 3 -24 -3 -29
-23z"/>
<path d="M494 1156 c-3 -8 -4 -23 -2 -33 5 -25 51 -25 56 0 7 36 -42 65 -54
33z"/>
<path d="M2554 1066 c-10 -26 1 -51 23 -54 17 -3 24 3 29 22 3 14 3 30 -1 35
-9 16 -45 13 -51 -3z"/>
<path d="M534 1005 c-14 -35 26 -70 51 -44 18 20 2 59 -25 59 -11 0 -23 -7
-26 -15z"/>
<path d="M2500 921 c-5 -11 -10 -26 -10 -34 0 -20 29 -30 46 -16 19 16 18 55
-2 63 -22 8 -22 8 -34 -13z"/>
<path d="M596 865 c-7 -19 5 -19 30 0 19 14 19 14 -2 15 -12 0 -24 -7 -28 -15z"/>
<path d="M683 799 c-126 -23 -214 -131 -214 -264 0 -150 113 -266 259 -266 70
0 114 13 163 47 104 72 140 209 86 326 -30 67 -68 105 -132 133 -61 28 -106
34 -162 24z m142 -77 c42 -20 74 -51 95 -92 27 -52 30 -142 6 -175 -13 -18
-14 -17 -42 9 -16 14 -39 29 -51 32 -18 5 -21 10 -13 24 15 28 12 78 -6 105
-21 32 -79 50 -116 36 -43 -16 -62 -54 -55 -111 4 -29 2 -50 -3 -50 -6 0 -28
-16 -50 -36 l-40 -36 -11 28 c-6 16 -11 52 -11 80 1 153 161 254 297 186z
m-61 -134 c15 -25 -4 -53 -35 -53 -17 0 -25 6 -27 23 -7 46 38 67 62 30z m87
-175 l32 -31 -28 -18 c-50 -33 -119 -44 -176 -30 -87 23 -98 53 -33 97 24 16
42 19 102 17 65 -3 75 -6 103 -35z"/>
<path d="M2333 799 c-126 -23 -214 -131 -214 -264 0 -150 113 -266 259 -266
70 0 114 13 163 47 104 72 140 209 86 326 -30 67 -68 105 -132 133 -61 28
-106 34 -162 24z m133 -69 c34 -13 84 -60 103 -99 28 -53 31 -143 7 -176 -13
-18 -14 -17 -42 9 -16 14 -39 29 -51 32 -18 5 -21 10 -13 24 15 28 12 78 -6
105 -21 32 -79 50 -116 36 -43 -16 -62 -54 -55 -111 4 -29 2 -50 -3 -50 -6 0
-28 -16 -50 -36 l-40 -36 -11 28 c-18 46 -13 127 10 172 50 98 162 140 267
102z m-52 -142 c15 -25 -4 -53 -35 -53 -17 0 -25 6 -27 23 -7 46 38 67 62 30z
m80 -167 c34 -32 33 -47 -3 -65 -54 -28 -109 -35 -163 -21 -86 22 -97 52 -32
96 44 30 162 24 198 -10z"/>
<path d="M1060 420 c-8 -15 -9 -25 -2 -32 17 -17 44 -1 40 24 -4 30 -24 34
-38 8z"/>
<path d="M1946 397 c-15 -11 -17 -17 -7 -35 14 -26 34 -28 55 -6 19 19 20 26
4 42 -16 16 -30 15 -52 -1z"/>
<path d="M1182 378 c-19 -19 -14 -37 13 -50 21 -10 29 -9 43 6 16 16 16 18 -7
37 -27 22 -33 23 -49 7z"/>
<path d="M1797 345 c-24 -24 -10 -47 27 -43 26 2 31 7 31 28 0 30 -34 39 -58
15z"/>
<path d="M1324 325 c-14 -35 41 -60 66 -30 10 12 10 18 0 30 -16 19 -59 19
-66 0z"/>
<path d="M1634 315 c-10 -25 4 -45 29 -45 34 0 54 25 37 45 -7 8 -23 15 -37
15 -13 0 -26 -7 -29 -15z"/>
<path d="M1480 296 c0 -31 35 -45 57 -23 23 23 9 47 -27 47 -25 0 -30 -4 -30
-24z"/>
</g>
</svg>
